<?xml version="1.0" encoding="utf-8"?>
<!-- Generator: Adobe Illustrator 19.0.0, SVG Export Plug-In . SVG Version: 6.00 Build 0)  -->
<svg version="1.1" id="Layer_1" xmlns="http://www.w3.org/2000/svg" xmlns:xlink="http://www.w3.org/1999/xlink" x="0px" y="0px"
	 viewBox="0 0 11.1 13" enable-background="new 0 0 11.1 13" xml:space="preserve">
<path fill="#FFFFFF" d="M10.1,0H1C0.4,0,0,0.5,0,1v11c0,0.5,0.4,1,1,1h9.1c0.5,0,1-0.5,1-1V1C11.1,0.5,10.6,0,10.1,0z M5.4,9h-4V8h4
	V9z M8.4,7.5H1.3v-1h7.1V7.5z M8.4,6.1H1.3v-1h7.1V6.1z M8.4,4.6H1.3v-1h7.1V4.6z M8.4,3.2H1.3v-1h7.1V3.2z"/>
</svg>
