<?xml version="1.0" encoding="UTF-8"?>
<!DOCTYPE svg PUBLIC "-//W3C//DTD SVG 1.1//EN" "http://www.w3.org/Graphics/SVG/1.1/DTD/svg11.dtd">
<!-- Creator: CorelDRAW X7 -->
<svg xmlns="http://www.w3.org/2000/svg" xml:space="preserve" width="210mm" height="297mm" version="1.1" shape-rendering="geometricPrecision" text-rendering="geometricPrecision" image-rendering="optimizeQuality" fill-rule="evenodd" clip-rule="evenodd"
viewBox="0 0 21000 29700"
 xmlns:xlink="http://www.w3.org/1999/xlink"
 enable-background="new 0 0 19.2 12.2">
 <g id="Layer_x0020_1">
  <metadata id="CorelCorpID_0Corel-Layer"/>
  <rect fill="none" x="127" y="-1676" width="21505" height="24765"/>
  <g id="_498826616">
   <path fill="white" d="M21370 5185l-5797 0c0,0 0,-109 0,-109 0,-766 -547,-1313 -1312,-1313l-8313 0c-765,0 -1312,547 -1312,1313 0,0 0,109 0,109l0 0 0 1313 0 0 -3828 0c0,0 -110,0 -110,0 0,0 0,0 0,0l0 0c-219,109 -328,218 -328,328 0,0 0,0 0,109 0,0 0,0 0,0 0,0 0,109 0,109 0,0 0,0 0,0l0 0c0,0 0,0 0,0l3938 9844c0,110 109,219 218,219l0 0 110 0c0,0 109,0 109,0 109,0 109,0 219,0 0,0 0,0 0,0l16406 0 0 -11922zm-19906 2188l3062 0 0 0 0 7656 -3062 -7656z"/>
  </g>
 </g>
</svg>
