<?xml version="1.0" encoding="UTF-8"?>
<!DOCTYPE svg PUBLIC "-//W3C//DTD SVG 1.1//EN" "http://www.w3.org/Graphics/SVG/1.1/DTD/svg11.dtd">
<!-- Creator: CorelDRAW X7 -->
<svg xmlns="http://www.w3.org/2000/svg" xml:space="preserve" width="6.4028mm" height="12.8058mm" version="1.1" shape-rendering="geometricPrecision" text-rendering="geometricPrecision" image-rendering="optimizeQuality" fill-rule="evenodd" clip-rule="evenodd"
viewBox="0 0 640 1281"
 xmlns:xlink="http://www.w3.org/1999/xlink"
 enable-background="new 0 0 24.2 24.2">
 <defs>
     <linearGradient id="id0" gradientUnits="userSpaceOnUse" x1="320.33" y1="1278.17" x2="320.33" y2="643.19">
      <stop offset="0" stop-opacity="1" stop-color="#E7E7E7"/>
      <stop offset="1" stop-opacity="1" stop-color="white"/>
     </linearGradient>
 </defs>
 <g id="Layer_x0020_1">
  <metadata id="CorelCorpID_0Corel-Layer"/>
  <g id="menu_rotacia_objektu_active.svg">
   <g>
    <rect fill="#80B541" x="3" y="3" width="635" height="635"/>
    <path fill="#80B541" d="M640 640l-640 0 0 -640 640 0 0 640zm-635 -5l630 0 0 -630 -630 0 0 630z"/>
   </g>
   <path fill="white" d="M386 185c-42,-21 -89,-18 -132,0l-26 -26 -13 48 -16 47 45 -16 47 -16 -21 -21c34,-13 72,-16 109,3 66,32 92,108 63,175 -16,31 -42,55 -74,66 -32,10 -69,10 -101,-6 -60,-29 -90,-97 -68,-161l-19 -5c-26,74 8,153 77,185 21,11 42,16 63,16 16,0 35,-3 51,-8 37,-13 68,-42 84,-77 37,-77 6,-167 -69,-204z"/>
   <circle fill="white" cx="320" cy="323" r="74"/>
   <g>
   </g>
   <g>
   </g>
   <g>
   </g>
   <g>
   </g>
   <g>
   </g>
   <g>
   </g>
  </g>
  <g id="menu_rotacia_objektu_nonactive.svg">
   <g>
    <polygon fill="url(#id0)" points="3,1278 638,1278 638,643 3,643 "/>
    <path fill="lightgrey" d="M640 1281l-640 0 0 -640 640 0 0 640zm-635 -5l630 0 0 -630 -630 0 0 630z"/>
   </g>
   <path fill="#231F20" d="M386 826c-42,-21 -89,-19 -132,0l-26 -27 -13 48 -16 48 45 -16 47 -16 -21 -21c34,-14 72,-16 109,2 66,32 92,109 63,175 -16,32 -42,55 -74,66 -32,11 -69,11 -101,-5 -60,-29 -90,-98 -68,-162l-19 -5c-26,74 8,154 77,185 21,11 42,16 63,16 16,0 35,-2 51,-8 37,-13 68,-42 84,-77 37,-76 6,-166 -69,-203z"/>
   <circle fill="#7CA540" cx="320" cy="963" r="74"/>
   <g>
   </g>
   <g>
   </g>
   <g>
   </g>
   <g>
   </g>
   <g>
   </g>
   <g>
   </g>
  </g>
 </g>
</svg>
