<?xml version="1.0" encoding="UTF-8"?>
<!DOCTYPE svg PUBLIC "-//W3C//DTD SVG 1.1//EN" "http://www.w3.org/Graphics/SVG/1.1/DTD/svg11.dtd">
<!-- Creator: CorelDRAW X7 -->
<svg xmlns="http://www.w3.org/2000/svg" xml:space="preserve" width="210mm" height="297mm" version="1.1" shape-rendering="geometricPrecision" text-rendering="geometricPrecision" image-rendering="optimizeQuality" fill-rule="evenodd" clip-rule="evenodd"
viewBox="0 0 21000 29700"
 xmlns:xlink="http://www.w3.org/1999/xlink">
 <g id="Layer_x0020_1">
  <metadata id="CorelCorpID_0Corel-Layer"/>
  <rect fill="none" x="127" y="-1676" width="21505" height="24765"/>
  <g id="_504073544">
   <path fill="#FEFEFE" d="M3874 19377l13952 0c714,0 1293,-579 1293,-1273l0 -13799 -2007 -2065 -1833 0c19,1834 19,3648 19,5462 0,231 -154,501 -424,501 -2625,0 -5250,0 -7893,-19 -232,0 -425,-231 -425,-482l0 -5462 -2682 0c-715,0 -1274,579 -1274,1274l0 14590c0,694 559,1273 1274,1273zm1196 -1370l11676 0c231,0 405,-193 405,-405l0 -7623c0,-212 -174,-405 -405,-405l-11676 0c-212,0 -405,193 -405,405l0 7623c0,212 193,405 405,405zm6832 -10691l1621 0c77,0 154,-77 154,-155l0 -3840c0,-77 -77,-154 -154,-154l-1621 0c-78,0 -155,77 -155,154l0 3840c0,78 77,155 155,155z"/>
   <rect fill="#FEFEFE" x="6460" y="2240" width="9101" height="565"/>
  </g>
 </g>
</svg>
