<?xml version="1.0" encoding="UTF-8"?>
<!DOCTYPE svg PUBLIC "-//W3C//DTD SVG 1.1//EN" "http://www.w3.org/Graphics/SVG/1.1/DTD/svg11.dtd">
<!-- Creator: CorelDRAW X7 -->
<svg xmlns="http://www.w3.org/2000/svg" xml:space="preserve" width="210mm" height="297mm" version="1.1" shape-rendering="geometricPrecision" text-rendering="geometricPrecision" image-rendering="optimizeQuality" fill-rule="evenodd" clip-rule="evenodd"
viewBox="0 0 21000 29700"
 xmlns:xlink="http://www.w3.org/1999/xlink"
 enable-background="new 0 0 14.9 14.9">
 <g id="Layer_x0020_1">
  <metadata id="CorelCorpID_0Corel-Layer"/>
  <rect fill="none" x="127" y="-1676" width="21505" height="24765"/>
  <g id="_502754616">
   <path fill="white" d="M19172 9041l-1127 0c-501,0 -876,-376 -1002,-751 -125,-376 -376,-1628 -125,-1879l751 -751c251,-251 251,-877 0,-1127l-751 -876c-250,-251 -876,-251 -1127,0l-751 751c-376,376 -877,501 -1253,251 -375,-251 -1377,-877 -1377,-1253l0 -1126c0,-501 -376,-752 -751,-752l-1253 0c-500,0 -751,376 -751,752l0 1126c0,501 -376,877 -752,1002 -500,125 -1627,376 -2003,0l-751 -751c-251,-251 -751,-251 -1127,0l-877 876c-250,376 -250,877 0,1128l752 751c250,251 376,877 250,1252 -250,376 -876,1378 -1252,1378l-1127 -1c-376,0 -751,376 -751,877l0 1127c0,500 375,751 751,751l1127 0c501,0 876,376 1002,752 125,376 376,1628 125,1878l-877 876c-250,251 -250,877 0,1127l877 877c250,250 876,250 1127,0l751 -752c251,-250 877,-376 1253,-250 375,250 1377,876 1377,1252l0 1127c0,501 376,752 751,752l1127 0c501,0 752,-376 752,-752l0 -1127c0,-500 376,-876 751,-1001 376,-126 1628,-376 1879,-126l751 752c251,250 877,250 1127,0l877 -877c250,-250 250,-876 0,-1127l-752 -751c-250,-251 -376,-877 -250,-1253 250,-375 876,-1377 1252,-1377l1377 0c501,0 752,-376 752,-751l0 -1127c0,-501 -376,-877 -752,-877zm-8264 4884c-1879,0 -3382,-1503 -3382,-3381 0,-1879 1503,-3381 3382,-3381 1878,0 3381,1502 3381,3381 125,1878 -1378,3381 -3381,3381z"/>
   <g>
   </g>
   <g>
   </g>
   <g>
   </g>
   <g>
   </g>
   <g>
   </g>
   <g>
   </g>
  </g>
 </g>
</svg>
