<?xml version="1.0" encoding="utf-8"?>
<!-- Generator: Adobe Illustrator 19.1.0, SVG Export Plug-In . SVG Version: 6.00 Build 0)  -->
<svg version="1.1" id="Layer_1" xmlns="http://www.w3.org/2000/svg" xmlns:xlink="http://www.w3.org/1999/xlink" x="0px" y="0px"
	 width="151.8px" height="52.2px" viewBox="0 0 151.8 52.2" enable-background="new 0 0 151.8 52.2" xml:space="preserve">
<path fill="#7FB439" d="M145.8,52.2H6c-3.3,0-6-2.7-6-6V6c0-3.3,2.7-6,6-6h139.8c3.3,0,6,2.7,6,6v40.2
	C151.8,49.5,149.1,52.2,145.8,52.2z"/>
<circle opacity="0.3" fill="#FFFFFF" cx="29.8" cy="25.2" r="18.6"/>
<path fill="#FFFFFF" d="M29.8,44.2c-10.5,0-19-8.5-19-19c0-10.5,8.5-19,19-19c10.5,0,19,8.5,19,19C48.8,35.7,40.3,44.2,29.8,44.2z
	 M29.8,7c-10,0-18.2,8.2-18.2,18.2c0,10,8.2,18.2,18.2,18.2S48,35.2,48,25.2C48,15.2,39.8,7,29.8,7z"/>
<path fill="#FFFFFF" d="M37.7,18.5H20.9c-1.3,0-2.3,1-2.3,2.3v9.1c0,1.3,1,2.3,2.3,2.3h16.8c1.3,0,2.3-1,2.3-2.3v-9.1
	C40,19.5,38.9,18.5,37.7,18.5z M24.4,23.2h-2.9c-0.2,0-0.3-0.2-0.3-0.3c0-0.2,0.1-0.3,0.3-0.3h2.9c0.2,0,0.3,0.1,0.3,0.3
	C24.7,23.1,24.6,23.2,24.4,23.2z M33.3,30.4c-2.8,0-5.1-2.3-5.1-5.1c0-2.8,2.3-5.1,5.1-5.1s5.1,2.3,5.1,5.1
	C38.4,28.1,36.1,30.4,33.3,30.4z"/>
<circle fill="#FFFFFF" cx="33.3" cy="25.4" r="3.7"/>
<path fill="#FFFFFF" d="M25.4,17.8c0,0.2-0.2,1.7-0.4,1.7h-3.5c-0.2,0-0.4-1.5-0.4-1.7l0,0c0-0.2,0.2-0.4,0.4-0.4H25
	C25.2,17.4,25.4,17.6,25.4,17.8L25.4,17.8z"/>
<g>
	<path fill="#FFFFFF" d="M67.5,27.8c0-0.5-0.2-0.9-0.5-1.2c-0.3-0.3-0.9-0.6-1.8-0.8c-1-0.3-1.9-0.6-2.4-1.1
		c-0.6-0.5-0.9-1.1-0.9-1.9c0-0.8,0.3-1.5,0.9-2c0.6-0.5,1.4-0.8,2.5-0.8c1.1,0,1.9,0.3,2.6,0.9s1,1.3,0.9,2.1l0,0h-1.3
		c0-0.6-0.2-1.1-0.6-1.4c-0.4-0.4-0.9-0.6-1.6-0.6c-0.6,0-1.1,0.2-1.5,0.5c-0.3,0.3-0.5,0.7-0.5,1.2c0,0.4,0.2,0.8,0.6,1.1
		c0.4,0.3,1,0.6,1.8,0.8c1,0.3,1.8,0.7,2.4,1.2s0.8,1.2,0.8,1.9c0,0.8-0.3,1.5-1,2c-0.7,0.5-1.5,0.8-2.5,0.8c-1,0-1.9-0.3-2.6-0.8
		c-0.8-0.6-1.1-1.3-1.1-2.2l0,0h1.3c0,0.6,0.2,1.1,0.7,1.5c0.5,0.4,1,0.5,1.7,0.5c0.7,0,1.2-0.1,1.6-0.4S67.5,28.3,67.5,27.8z"/>
	<path fill="#FFFFFF" d="M73.7,29.5c0.4,0,0.8-0.1,1.1-0.4s0.5-0.6,0.5-1h1.3l0,0c0,0.7-0.3,1.2-0.8,1.8c-0.6,0.5-1.3,0.8-2,0.8
		c-1.1,0-1.9-0.4-2.5-1.1c-0.6-0.7-0.9-1.6-0.9-2.7v-0.3c0-1.1,0.3-2,0.9-2.7c0.6-0.7,1.4-1.1,2.5-1.1c0.9,0,1.5,0.3,2.1,0.8
		c0.5,0.5,0.8,1.2,0.8,1.9l0,0h-1.3c0-0.5-0.2-0.9-0.5-1.2c-0.3-0.3-0.7-0.5-1.1-0.5c-0.7,0-1.2,0.3-1.5,0.8
		c-0.3,0.5-0.5,1.2-0.5,1.9v0.3c0,0.8,0.2,1.4,0.5,1.9S73,29.5,73.7,29.5z"/>
	<path fill="#FFFFFF" d="M81.8,24l-0.7,0c-0.4,0-0.7,0.1-0.9,0.3s-0.4,0.4-0.6,0.7v5.4h-1.4v-7.6h1.2l0.1,1.1
		c0.2-0.4,0.5-0.7,0.8-0.9c0.3-0.2,0.7-0.3,1.1-0.3c0.1,0,0.2,0,0.3,0c0.1,0,0.2,0,0.2,0.1L81.8,24z"/>
	<path fill="#FFFFFF" d="M86.3,30.6c-1.1,0-1.9-0.3-2.6-1s-0.9-1.6-0.9-2.8v-0.3c0-1.1,0.3-2,0.9-2.7c0.6-0.7,1.4-1.1,2.3-1.1
		c1,0,1.8,0.3,2.3,1c0.5,0.6,0.8,1.5,0.8,2.5v0.7h-4.9l0,0c0,0.8,0.2,1.4,0.5,1.9c0.3,0.5,0.9,0.7,1.6,0.7c0.5,0,0.9-0.1,1.2-0.2
		c0.4-0.1,0.7-0.3,0.9-0.6l0.5,0.9c-0.3,0.3-0.6,0.5-1.1,0.7C87.4,30.5,86.9,30.6,86.3,30.6z M86,23.7c-0.5,0-0.9,0.2-1.2,0.6
		s-0.5,0.9-0.6,1.4l0,0h3.4v-0.1c0-0.6-0.1-1-0.4-1.4S86.6,23.7,86,23.7z"/>
	<path fill="#FFFFFF" d="M93.8,30.6c-1.1,0-1.9-0.3-2.6-1s-0.9-1.6-0.9-2.8v-0.3c0-1.1,0.3-2,0.9-2.7c0.6-0.7,1.4-1.1,2.3-1.1
		c1,0,1.8,0.3,2.3,1c0.5,0.6,0.8,1.5,0.8,2.5v0.7h-4.9l0,0c0,0.8,0.2,1.4,0.5,1.9c0.3,0.5,0.9,0.7,1.6,0.7c0.5,0,0.9-0.1,1.2-0.2
		c0.4-0.1,0.7-0.3,0.9-0.6l0.5,0.9c-0.3,0.3-0.6,0.5-1.1,0.7C95,30.5,94.4,30.6,93.8,30.6z M93.6,23.7c-0.5,0-0.9,0.2-1.2,0.6
		s-0.5,0.9-0.6,1.4l0,0h3.4v-0.1c0-0.6-0.1-1-0.4-1.4S94.2,23.7,93.6,23.7z"/>
	<path fill="#FFFFFF" d="M99.5,22.8l0.1,1.1c0.3-0.4,0.6-0.7,1-0.9s0.8-0.3,1.3-0.3c0.8,0,1.5,0.2,1.9,0.7c0.5,0.5,0.7,1.2,0.7,2.2
		v4.8H103v-4.8c0-0.7-0.1-1.1-0.4-1.4c-0.3-0.3-0.7-0.4-1.2-0.4c-0.4,0-0.8,0.1-1.1,0.3c-0.3,0.2-0.5,0.4-0.7,0.7v5.7h-1.4v-7.6
		H99.5z"/>
	<path fill="#FFFFFF" d="M110.9,28.4c0-0.3-0.1-0.6-0.3-0.7c-0.2-0.2-0.7-0.4-1.3-0.5c-0.9-0.2-1.6-0.5-2.1-0.8s-0.7-0.8-0.7-1.4
		c0-0.6,0.3-1.2,0.8-1.6c0.5-0.4,1.2-0.7,2.1-0.7c0.9,0,1.6,0.2,2.1,0.7c0.5,0.5,0.8,1,0.8,1.6l0,0h-1.3c0-0.3-0.1-0.6-0.4-0.9
		c-0.3-0.3-0.7-0.4-1.1-0.4c-0.5,0-0.9,0.1-1.1,0.3c-0.2,0.2-0.4,0.5-0.4,0.8c0,0.3,0.1,0.5,0.3,0.7s0.6,0.3,1.3,0.5
		c0.9,0.2,1.6,0.5,2.1,0.8c0.5,0.4,0.7,0.8,0.7,1.4c0,0.7-0.3,1.2-0.8,1.7c-0.5,0.4-1.3,0.6-2.1,0.6c-1,0-1.7-0.2-2.3-0.7
		c-0.6-0.5-0.8-1.1-0.8-1.7l0,0h1.3c0,0.5,0.2,0.9,0.5,1.1s0.7,0.3,1.2,0.3c0.5,0,0.9-0.1,1.2-0.3S110.9,28.7,110.9,28.4z"/>
	<path fill="#FFFFFF" d="M115.4,23.8c0.3-0.4,0.6-0.7,1-0.9c0.4-0.2,0.8-0.3,1.3-0.3c0.8,0,1.4,0.2,1.9,0.7c0.5,0.5,0.7,1.2,0.7,2.3
		v4.8h-1.4v-4.8c0-0.6-0.1-1.1-0.4-1.4c-0.3-0.3-0.7-0.5-1.2-0.5c-0.4,0-0.8,0.1-1.1,0.2c-0.3,0.2-0.6,0.4-0.7,0.7v5.7H114v-11h1.4
		V23.8z"/>
	<path fill="#FFFFFF" d="M121.8,26.5c0-1.1,0.3-2.1,0.9-2.8c0.6-0.7,1.4-1.1,2.5-1.1c1.1,0,1.9,0.4,2.5,1.1c0.6,0.7,0.9,1.7,0.9,2.8
		v0.2c0,1.1-0.3,2.1-0.9,2.8c-0.6,0.7-1.4,1.1-2.5,1.1s-1.9-0.4-2.5-1.1c-0.6-0.7-0.9-1.7-0.9-2.8V26.5z M123.2,26.7
		c0,0.8,0.2,1.5,0.5,2s0.8,0.8,1.5,0.8c0.7,0,1.2-0.3,1.5-0.8c0.3-0.5,0.5-1.2,0.5-2v-0.2c0-0.8-0.2-1.5-0.5-2
		c-0.3-0.5-0.9-0.8-1.5-0.8c-0.7,0-1.2,0.3-1.5,0.8c-0.3,0.5-0.5,1.2-0.5,2V26.7z"/>
	<path fill="#FFFFFF" d="M132.3,20.9v1.8h1.4v1h-1.4v4.6c0,0.4,0.1,0.6,0.2,0.8c0.1,0.1,0.3,0.2,0.6,0.2c0.1,0,0.2,0,0.3,0
		c0.1,0,0.2,0,0.2-0.1l0.2,1c-0.1,0.1-0.3,0.2-0.5,0.2c-0.2,0.1-0.4,0.1-0.6,0.1c-0.6,0-1-0.2-1.3-0.5s-0.5-0.9-0.5-1.6v-4.6h-1.2
		v-1h1.2v-1.8H132.3z"/>
</g>
<g>
</g>
<g>
</g>
<g>
</g>
<g>
</g>
<g>
</g>
<g>
</g>
</svg>
