<?xml version="1.0" encoding="utf-8"?>
<!-- Generator: Adobe Illustrator 16.0.3, SVG Export Plug-In . SVG Version: 6.00 Build 0)  -->
<!DOCTYPE svg PUBLIC "-//W3C//DTD SVG 1.1//EN" "http://www.w3.org/Graphics/SVG/1.1/DTD/svg11.dtd">
<svg version="1.1" id="Layer_1" xmlns="http://www.w3.org/2000/svg" xmlns:xlink="http://www.w3.org/1999/xlink" x="0px" y="0px"
	 width="56.693px" height="56.693px" viewBox="0 0 56.693 56.693" enable-background="new 0 0 56.693 56.693" xml:space="preserve">
<g>
	<g>
		<circle fill="#FFFFFF" cx="28.347" cy="28.346" r="15.5"/>
		<path fill="#7BA840" d="M28.347,45.346c-9.374,0-17-7.625-17-17c0-9.374,7.626-16.999,17-16.999s17,7.625,17,16.999
			C45.347,37.721,37.721,45.346,28.347,45.346z M28.347,14.347c-7.72,0-14,6.279-14,13.999c0,7.72,6.28,14,14,14s14-6.279,14-14
			C42.347,20.626,36.066,14.347,28.347,14.347z"/>
	</g>
	<path fill="#231F20" d="M22.034,19.525V37.17h1.462v-4.289h2.688h0.204h1.015v4.289h7.256V19.525H22.034z M26.389,31.107h-2.893
		v-2.892h2.893V31.107z M26.389,27.46h-2.893V24.57h2.893V27.46z M26.389,23.814h-2.893v-2.89h2.893V23.814z M32.684,31.107h-2.892
		v-2.892h2.892V31.107z M32.684,27.46h-2.892V24.57h2.892V27.46z M32.684,23.814h-2.892v-2.89h2.892V23.814z"/>
</g>
</svg>
