<?xml version="1.0" encoding="utf-8"?>
<!-- Generator: Adobe Illustrator 19.1.0, SVG Export Plug-In . SVG Version: 6.00 Build 0)  -->
<svg version="1.1" id="Layer_1" xmlns="http://www.w3.org/2000/svg" xmlns:xlink="http://www.w3.org/1999/xlink" x="0px" y="0px"
	 width="171.5px" height="173.2px" viewBox="0 0 171.5 173.2" enable-background="new 0 0 171.5 173.2" xml:space="preserve">
<g>
	<circle fill="#EAEAEA" cx="85.7" cy="86.6" r="76.6"/>
	<path fill="#EAEAEA" d="M85.7,171.3c-46.7,0-84.7-38-84.7-84.7c0-46.7,38-84.7,84.7-84.7c46.7,0,84.7,38,84.7,84.7
		C170.4,133.3,132.4,171.3,85.7,171.3z M85.7,2.9C39.6,2.9,2.1,40.5,2.1,86.6c0,46.1,37.5,83.7,83.7,83.7
		c46.1,0,83.7-37.5,83.7-83.7C169.4,40.5,131.9,2.9,85.7,2.9z"/>
	<g>
		<polygon fill="#7BA540" points="83.3,84.6 83.3,133.8 39.4,112 39.4,62.8 		"/>
		<polygon fill="#7BA540" points="132.1,57 85.7,80.4 39.3,57 85.7,37.2 		"/>
		<polygon fill="#7BA540" points="132.1,62.8 132.1,112 88.2,133.8 88.2,84.6 		"/>
	</g>
</g>
<g>
</g>
<g>
</g>
<g>
</g>
<g>
</g>
<g>
</g>
<g>
</g>
</svg>
