<?xml version="1.0" encoding="utf-8"?>
<!-- Generator: Adobe Illustrator 19.1.0, SVG Export Plug-In . SVG Version: 6.00 Build 0)  -->
<svg version="1.1" id="Layer_1" xmlns="http://www.w3.org/2000/svg" xmlns:xlink="http://www.w3.org/1999/xlink" x="0px" y="0px"
	 width="166px" height="37.2px" viewBox="0 0 166 37.2" enable-background="new 0 0 166 37.2" xml:space="preserve">
<g>
	<rect fill="#7FB342" width="166" height="37.5"/>
</g>
<g>
	<g>
		<path fill="#FFFFFF" d="M55.1,20.5V25h-1.5V13.7h4.4c1.2,0,2.2,0.3,2.8,0.9s1,1.4,1,2.5c0,1-0.3,1.9-1,2.5
			c-0.7,0.6-1.6,0.9-2.8,0.9H55.1z M55.1,19.3h2.8c0.8,0,1.3-0.2,1.7-0.6s0.6-0.9,0.6-1.6c0-0.6-0.2-1.2-0.6-1.6s-1-0.6-1.7-0.6
			h-2.8V19.3z"/>
		<path fill="#FFFFFF" d="M67.5,17.9l-0.8,0c-0.4,0-0.7,0.1-1,0.3c-0.3,0.2-0.5,0.5-0.6,0.8v6h-1.5v-8.5h1.4l0.1,1.2
			c0.2-0.4,0.5-0.8,0.9-1c0.4-0.2,0.8-0.4,1.2-0.4c0.1,0,0.2,0,0.3,0c0.1,0,0.2,0,0.3,0.1L67.5,17.9z"/>
		<path fill="#FFFFFF" d="M70.8,14.4h-1.5v-1.6h1.5V14.4z M70.8,25h-1.5v-8.5h1.5V25z"/>
		<path fill="#FFFFFF" d="M74.7,17.7c0.3-0.4,0.6-0.7,1.1-0.9s0.9-0.3,1.4-0.3c0.9,0,1.6,0.3,2.1,0.8c0.5,0.5,0.8,1.4,0.8,2.5V25
			h-1.5v-5.3c0-0.7-0.1-1.2-0.4-1.5c-0.3-0.3-0.7-0.5-1.3-0.5c-0.5,0-0.9,0.1-1.2,0.3s-0.6,0.4-0.8,0.8V25h-1.5V12.8h1.5V17.7z"/>
		<path fill="#FFFFFF" d="M83.9,25h-1.5V12.8h1.5V25z"/>
		<path fill="#FFFFFF" d="M91.5,25c-0.1-0.3-0.1-0.5-0.1-0.7s0-0.4-0.1-0.6c-0.3,0.4-0.7,0.7-1.1,1s-1,0.4-1.5,0.4
			c-0.9,0-1.6-0.2-2-0.7S86,23.4,86,22.7c0-0.8,0.3-1.4,1-1.9s1.5-0.7,2.7-0.7h1.7v-0.8c0-0.5-0.2-0.9-0.5-1.2s-0.7-0.4-1.3-0.4
			c-0.5,0-0.9,0.1-1.2,0.4s-0.5,0.5-0.5,0.9l-1.5,0l0,0c0-0.6,0.3-1.2,0.9-1.7c0.6-0.5,1.4-0.8,2.4-0.8c1,0,1.7,0.2,2.3,0.7
			c0.6,0.5,0.9,1.2,0.9,2.1v4.1c0,0.3,0,0.6,0,0.9s0.1,0.6,0.2,0.8H91.5z M88.9,23.9c0.6,0,1.1-0.1,1.5-0.4s0.7-0.6,0.9-1v-1.4h-1.7
			c-0.6,0-1.1,0.2-1.5,0.5s-0.6,0.7-0.6,1.1c0,0.4,0.1,0.7,0.4,0.9S88.5,23.9,88.9,23.9z M90.2,13H92l0,0l-2.1,2h-1.2L90.2,13z"/>
		<path fill="#FFFFFF" d="M100,22.8c0-0.3-0.1-0.6-0.4-0.8s-0.7-0.4-1.5-0.6c-1-0.2-1.8-0.5-2.3-0.9s-0.8-0.9-0.8-1.5
			c0-0.7,0.3-1.3,0.9-1.8c0.6-0.5,1.3-0.7,2.3-0.7c1,0,1.7,0.3,2.3,0.8c0.6,0.5,0.9,1.1,0.9,1.8l0,0h-1.5c0-0.4-0.2-0.7-0.5-1
			s-0.7-0.4-1.2-0.4c-0.5,0-0.9,0.1-1.2,0.4c-0.3,0.2-0.4,0.5-0.4,0.9c0,0.3,0.1,0.6,0.3,0.8s0.7,0.3,1.4,0.5c1,0.2,1.8,0.5,2.4,0.9
			s0.8,0.9,0.8,1.6c0,0.8-0.3,1.4-0.9,1.8s-1.4,0.7-2.4,0.7c-1.1,0-1.9-0.3-2.5-0.8s-0.9-1.2-0.9-1.9l0,0h1.5c0,0.5,0.2,0.9,0.6,1.2
			s0.8,0.4,1.3,0.4c0.5,0,1-0.1,1.3-0.3S100,23.1,100,22.8z"/>
		<path fill="#FFFFFF" d="M105.1,14.4h-1.5v-1.6h1.5V14.4z M105.1,25h-1.5v-8.5h1.5V25z"/>
		<path fill="#FFFFFF" d="M109.6,14.5v2h1.6v1.1h-1.6v5.1c0,0.4,0.1,0.7,0.2,0.8s0.4,0.2,0.7,0.2c0.1,0,0.2,0,0.3,0s0.2,0,0.3-0.1
			l0.2,1.1c-0.1,0.1-0.3,0.2-0.5,0.2c-0.2,0.1-0.4,0.1-0.7,0.1c-0.6,0-1.1-0.2-1.5-0.6s-0.6-1-0.6-1.8v-5.1h-1.3v-1.1h1.3v-2H109.6z
			 M112.4,13.7l-1,1.9h-0.8l0.5-1.9v-1h1.2V13.7z"/>
	</g>
</g>
<g>
</g>
<g>
</g>
<g>
</g>
<g>
</g>
<g>
</g>
<g>
</g>
</svg>
